<?xml version="1.0" standalone="no"?>
<!DOCTYPE svg PUBLIC "-//W3C//DTD SVG 20010904//EN"
 "http://www.w3.org/TR/2001/REC-SVG-20010904/DTD/svg10.dtd">
<svg version="1.0" xmlns="http://www.w3.org/2000/svg"
 width="200.000000pt" height="200.000000pt" viewBox="0 0 200.000000 200.000000"
 preserveAspectRatio="xMidYMid meet">

<g transform="translate(0.000000,200.000000) scale(0.100000,-0.100000)"
fill="#000000" stroke="none">
<path d="M730 1536 c0 -18 -7 -50 -15 -69 -10 -24 -15 -70 -15 -134 0 -109 -8
-173 -21 -173 -5 0 -9 27 -9 61 0 65 -13 89 -49 89 -21 0 -28 -20 -34 -110 -2
-25 -4 -3 -5 48 -1 53 -6 92 -12 92 -5 0 -10 11 -10 25 0 20 -6 25 -34 31 -19
3 -39 3 -45 -1 -7 -4 -11 -50 -12 -118 l0 -112 -20 45 c-11 24 -22 46 -24 48
-5 5 -55 -52 -72 -82 -20 -35 -15 -16 32 117 25 71 45 139 45 152 0 27 -42 55
-80 55 -34 0 -17 -24 21 -30 21 -3 35 -11 37 -22 2 -10 -40 -101 -92 -204 -53
-102 -96 -196 -96 -208 0 -29 27 -54 66 -62 l29 -6 0 -86 c0 -74 5 -99 30
-161 16 -40 34 -75 41 -78 6 -2 112 40 235 93 123 53 296 128 384 166 88 38
164 73 168 77 10 10 -57 163 -77 176 -14 9 -61 0 -108 -20 -16 -6 -18 0 -18
59 0 64 -1 66 -25 66 -18 0 -25 5 -25 20 0 15 -7 20 -25 20 -14 0 -25 5 -25
10 0 17 -57 12 -64 -6 -3 -9 -7 -37 -7 -62 l-2 -47 -7 55 c-5 30 -8 87 -9 126
-1 42 -7 84 -16 100 -8 16 -15 44 -15 62 0 17 -4 32 -10 32 -5 0 -10 -15 -10
-34z m29 -97 c6 -18 11 -77 11 -133 0 -56 4 -116 9 -134 l10 -33 -37 7 c-20 4
-39 9 -42 11 -2 2 -3 59 -2 126 4 165 25 230 51 156z m-229 -69 c22 0 30 -36
30 -139 l0 -76 -35 -11 -35 -11 0 113 c0 104 8 165 18 136 2 -7 12 -12 22 -12z
m330 -70 c0 -5 9 -10 20 -10 13 0 20 -7 20 -20 0 -16 7 -20 30 -20 l31 0 -3
-62 -3 -63 -44 -3 c-86 -6 -91 -2 -91 82 0 41 3 81 6 90 7 17 34 22 34 6z
m-214 -30 c10 0 14 -14 14 -55 0 -54 0 -55 -30 -55 -30 0 -30 1 -30 55 0 30 5
55 10 55 6 0 11 8 11 18 1 16 2 16 6 0 2 -10 11 -18 19 -18z m-176 -135 c0 -6
-12 -20 -27 -31 -53 -39 -55 -39 -39 1 9 21 16 39 16 41 0 2 11 3 25 2 14 -1
25 -7 25 -13z m655 -113 c10 -23 16 -44 13 -47 -4 -4 -718 -315 -724 -315 -1
0 -4 6 -7 13 -3 6 -12 29 -21 49 -10 24 -12 39 -6 43 6 4 18 -11 27 -32 9 -21
18 -33 20 -26 2 6 -3 25 -12 42 -9 19 -11 31 -5 31 6 0 18 -17 27 -37 9 -21
18 -33 20 -26 2 6 -3 25 -11 42 -9 17 -12 32 -7 36 5 3 15 -11 22 -30 7 -19
17 -35 21 -35 11 0 10 7 -7 39 -13 27 -11 41 6 41 5 0 18 -17 29 -37 15 -27
19 -30 15 -13 -17 67 -16 75 5 37 26 -48 36 -43 15 6 -13 33 -13 37 0 37 8 0
24 -17 35 -37 12 -21 19 -28 16 -15 -18 71 -18 69 -4 49 7 -10 19 -26 26 -35
13 -16 13 -15 8 1 -3 11 -9 31 -12 45 -4 22 -1 20 16 -11 26 -47 37 -43 16 6
-21 51 5 58 29 9 10 -21 20 -32 22 -25 2 7 0 21 -6 32 -6 11 -11 26 -11 33 1
7 10 -4 21 -25 23 -44 38 -43 19 2 -19 47 0 61 22 17 22 -42 34 -43 18 -2 -17
46 -10 53 11 13 23 -43 35 -45 19 -3 -17 46 -10 53 11 13 25 -47 36 -43 15 6
-12 29 -12 36 -1 41 8 3 20 -9 31 -32 9 -20 19 -32 21 -25 3 7 0 21 -6 32 -22
40 -10 45 15 6 15 -22 23 -31 19 -20 -15 40 -17 63 -6 70 7 4 17 -8 27 -30 8
-21 17 -35 20 -33 2 3 -3 21 -11 41 -10 23 -11 37 -5 37 6 0 18 -16 26 -36 8
-20 17 -34 20 -32 2 3 -3 21 -11 41 -8 21 -11 38 -6 42 5 3 15 -11 22 -30 7
-19 16 -35 20 -35 5 0 1 16 -7 35 -18 43 -18 45 2 45 8 0 22 -16 30 -36 8 -20
17 -34 20 -32 2 3 -3 21 -11 41 -8 21 -11 38 -6 42 5 3 15 -11 22 -30 7 -19
16 -35 20 -35 5 0 1 16 -7 35 -17 42 -17 42 2 49 11 4 19 -5 30 -30 8 -20 18
-34 20 -31 3 3 1 14 -5 25 -13 24 -15 61 -3 47 5 -6 17 -29 27 -53z"/>
<path d="M1200 1295 c0 -17 -59 -57 -72 -49 -4 3 -8 16 -8 30 0 13 -4 24 -8
24 -10 0 -8 -67 2 -77 3 -3 7 -20 7 -37 2 -28 2 -27 8 8 5 33 12 42 39 53 l32
13 0 -59 c0 -33 3 -62 8 -64 4 -3 7 35 7 84 0 49 -3 89 -7 89 -5 0 -8 -7 -8
-15z"/>
<path d="M1501 1235 c0 -38 4 -79 8 -90 5 -11 6 16 4 60 -6 104 -11 119 -12
30z"/>
<path d="M1875 1230 c9 -102 21 -117 17 -22 -2 42 -9 82 -14 87 -7 7 -8 -14
-3 -65z"/>
<path d="M1330 1251 c0 -41 -1 -43 -52 -65 l-53 -24 50 -7 c63 -8 77 -13 72
-22 -3 -5 0 -17 4 -28 6 -13 7 15 4 75 -5 96 -25 153 -25 71z m10 -71 c0 -16
-7 -20 -32 -20 l-33 1 24 19 c30 25 41 25 41 0z"/>
<path d="M1634 1258 c7 -41 -8 -58 -69 -79 l-40 -13 60 -11 c35 -6 60 -16 60
-23 0 -7 5 -11 10 -9 16 4 1 152 -17 163 -7 5 -9 -4 -4 -28z m14 -81 c3 -14
-4 -17 -35 -17 l-38 0 25 20 c28 22 44 21 48 -3z"/>
<path d="M1845 1215 c0 -35 -4 -67 -8 -72 -10 -10 -55 43 -63 74 -8 30 -24 19
-24 -15 0 -15 -5 -34 -10 -42 -14 -23 -30 0 -39 56 -7 37 -9 41 -10 18 -1 -43
18 -94 36 -94 8 0 20 13 26 29 l11 30 33 -37 c32 -36 33 -36 48 -18 16 20 20
102 7 123 -4 6 -7 -17 -7 -52z"/>
<path d="M1612 1098 c-29 -29 -1 -158 34 -158 18 0 24 26 22 98 -2 66 -2 66
-5 12 -2 -30 -6 -66 -9 -80 l-6 -25 -19 24 c-21 26 -26 90 -9 122 12 22 9 24
-8 7z"/>
<path d="M1303 1085 c-3 -9 -3 -18 -1 -21 3 -3 8 4 11 16 6 23 -1 27 -10 5z"/>
<path d="M1361 1030 c-1 -25 -6 -54 -10 -64 -7 -18 -8 -18 -24 5 -9 13 -17 33
-17 46 0 12 -4 24 -9 27 -11 7 2 -51 18 -82 6 -12 16 -22 22 -22 16 0 30 51
26 94 l-4 41 -2 -45z"/>
</g>
</svg>
