<?xml version="1.0" standalone="no"?>
<!DOCTYPE svg PUBLIC "-//W3C//DTD SVG 20010904//EN"
 "http://www.w3.org/TR/2001/REC-SVG-20010904/DTD/svg10.dtd">
<svg version="1.0" xmlns="http://www.w3.org/2000/svg"
 width="200.000000pt" height="200.000000pt" viewBox="0 0 200.000000 200.000000"
 preserveAspectRatio="xMidYMid meet">

<g transform="translate(0.000000,200.000000) scale(0.100000,-0.100000)"
fill="#000000" stroke="none">
<path d="M126 1173 c-8 -33 0 -393 9 -401 3 -3 6 46 6 109 1 63 3 154 5 203 3
94 -8 145 -20 89z"/>
<path d="M470 1166 c0 -23 27 -49 42 -41 7 4 5 0 -4 -8 -21 -17 -14 -27 19
-27 13 0 23 -5 23 -11 0 -6 -8 -8 -19 -4 -32 10 -51 -4 -46 -34 l5 -26 -11 28
c-13 32 -49 38 -49 8 0 -27 -21 -37 -35 -17 -7 9 -19 14 -29 10 -19 -7 -20
-13 -1 -38 10 -13 11 -25 4 -42 -11 -32 8 -66 33 -58 26 8 22 -5 -4 -16 -22
-8 -21 -9 10 -16 18 -3 35 -11 38 -16 4 -6 -5 -8 -22 -4 -37 8 -64 -8 -46 -26
6 -6 12 -20 12 -30 0 -21 13 -23 40 -6 16 10 24 10 41 -1 13 -8 24 -9 28 -3 3
5 33 17 66 27 115 32 190 87 210 153 10 33 -17 59 -68 67 -99 17 -138 55 -57
55 48 0 61 17 31 41 -27 22 -74 36 -153 45 -51 6 -58 5 -58 -10z m-50 -230 c0
-2 -7 -7 -16 -10 -8 -3 -12 -2 -9 4 6 10 25 14 25 6z"/>
<path d="M375 1162 c-43 -9 -47 -48 -5 -57 17 -4 28 -10 25 -15 -3 -5 1 -11 7
-14 7 -3 0 -2 -16 1 -20 4 -27 3 -22 -6 4 -6 19 -11 33 -11 20 0 24 4 18 18
-4 9 -7 23 -6 30 1 6 2 21 3 31 2 15 5 17 15 9 10 -8 13 -7 13 3 0 11 2 11 10
-1 8 -13 10 -12 10 3 0 18 -27 20 -85 9z m20 -42 c-3 -5 -11 -10 -16 -10 -6 0
-7 5 -4 10 3 6 11 10 16 10 6 0 7 -4 4 -10z"/>
<path d="M321 1124 c0 -11 3 -14 6 -6 3 7 2 16 -1 19 -3 4 -6 -2 -5 -13z"/>
<path d="M295 1120 c3 -5 8 -10 11 -10 2 0 4 5 4 10 0 6 -5 10 -11 10 -5 0 -7
-4 -4 -10z"/>
<path d="M275 1110 c6 -10 4 -12 -7 -7 -9 3 -24 -3 -34 -14 -23 -25 1 -26 35
0 18 14 21 20 11 26 -9 6 -11 4 -5 -5z"/>
<path d="M213 1052 c-14 -2 -25 -14 -32 -34 -15 -42 -14 -64 6 -105 15 -33 19
-35 55 -30 21 3 36 1 32 -4 -3 -5 -12 -9 -20 -9 -21 0 -17 -18 7 -30 28 -15
53 -5 44 18 -4 9 -8 24 -9 32 -1 9 -5 21 -9 28 -6 8 -3 10 10 6 16 -5 16 -4
-1 10 -23 19 -32 20 -41 6 -9 -15 -41 -12 -55 5 -21 25 4 69 35 63 27 -6 62
23 50 41 -6 10 -20 11 -72 3z"/>
<path d="M295 1000 c-7 -32 9 -65 27 -54 6 4 14 0 19 -7 10 -16 13 50 3 75
-11 28 -42 19 -49 -14z"/>
<path d="M320 829 c0 -10 10 -19 26 -22 19 -3 24 -1 20 10 -3 8 -6 18 -6 23 0
5 -9 8 -20 7 -11 -1 -20 -8 -20 -18z"/>
</g>
</svg>
