<?xml version="1.0" standalone="no"?>
<!DOCTYPE svg PUBLIC "-//W3C//DTD SVG 20010904//EN"
 "http://www.w3.org/TR/2001/REC-SVG-20010904/DTD/svg10.dtd">
<svg version="1.0" xmlns="http://www.w3.org/2000/svg"
 width="200.000000pt" height="200.000000pt" viewBox="0 0 200.000000 200.000000"
 preserveAspectRatio="xMidYMid meet">

<g transform="translate(0.000000,200.000000) scale(0.100000,-0.100000)"
fill="#000000" stroke="none">
<path d="M444 1466 c-36 -16 -74 -61 -74 -88 0 -11 4 -16 10 -13 6 4 8 -7 5
-27 -4 -24 -3 -27 3 -13 7 16 10 12 15 -20 10 -61 8 -95 -5 -95 -9 0 -9 -3 0
-12 8 -8 15 -8 28 3 16 13 17 9 11 -51 -5 -58 -4 -63 9 -46 18 25 18 88 -1
149 -19 62 -10 78 56 106 28 12 49 25 46 27 -3 3 -24 -4 -47 -16 -59 -30 -62
-17 -4 19 50 32 53 42 6 17 -42 -22 -75 -63 -76 -95 -1 -39 -12 -26 -21 24 -5
34 -2 46 17 70 12 16 16 25 9 20 -10 -5 -12 -4 -7 3 4 7 15 12 24 12 14 0 14
2 3 9 -9 6 3 8 35 7 28 -1 55 -6 62 -10 7 -4 12 -3 12 2 0 5 -17 14 -39 20
-46 14 -39 14 -77 -2z"/>
<path d="M582 1348 c-1 -20 -5 -45 -8 -55 -5 -17 -5 -17 6 0 6 9 9 34 7 55
l-4 37 -1 -37z"/>
<path d="M532 1215 c0 -16 2 -22 5 -12 2 9 2 23 0 30 -3 6 -5 -1 -5 -18z"/>
<path d="M1022 1198 c-38 -56 -124 -210 -112 -203 4 3 11 -1 13 -7 3 -7 6 -3
6 9 1 12 30 65 66 118 57 85 76 125 60 125 -2 0 -17 -19 -33 -42z"/>
<path d="M371 1171 c-7 -5 -12 -14 -10 -20 2 -6 10 -2 17 9 14 22 13 23 -7 11z"/>
<path d="M634 1076 c0 -55 2 -79 7 -61 9 42 11 143 2 148 -5 3 -8 -36 -9 -87z"/>
<path d="M357 1081 c3 -30 12 -71 19 -90 16 -39 17 -46 -12 84 l-13 60 6 -54z"/>
<path d="M422 957 c-2 -34 -6 -46 -14 -41 -7 4 -8 3 -4 -5 4 -6 0 -42 -9 -79
-10 -40 -15 -83 -11 -108 5 -37 3 -41 -13 -37 -27 7 -64 -43 -50 -68 12 -23
55 -25 63 -3 4 10 12 14 22 10 12 -5 15 -2 9 11 -27 68 -28 119 -6 209 12 50
21 106 18 125 -3 28 -4 25 -5 -14z"/>
<path d="M578 985 c-2 -11 5 -58 15 -104 12 -53 16 -86 9 -90 -5 -3 -13 -34
-17 -69 -4 -35 -12 -65 -19 -67 -6 -2 -24 -6 -39 -9 l-28 -7 5 68 c5 63 5 65
-5 23 -5 -25 -13 -56 -18 -70 -12 -41 -2 -110 17 -110 12 0 13 3 4 12 -7 7
-12 22 -12 35 0 17 8 24 37 32 20 6 37 9 38 8 1 -1 6 -24 11 -51 5 -27 15 -51
22 -54 11 -3 12 0 2 17 -6 12 -10 39 -8 59 3 32 7 38 33 43 l30 7 -27 1 c-26
1 -28 4 -28 40 0 21 5 52 11 69 8 24 7 47 -5 101 -19 83 -19 81 -6 81 6 0 11
-15 11 -32 2 -31 2 -31 6 -5 2 15 8 27 13 27 4 0 34 -13 65 -30 69 -36 134
-40 183 -10 17 11 32 25 31 32 0 8 -2 9 -5 2 -3 -6 -15 -9 -28 -7 -17 4 -25
-1 -29 -16 -4 -15 -13 -21 -34 -21 -31 0 -173 64 -185 83 -6 9 -8 9 -8 0 0
-21 -20 -14 -29 10 -8 21 -9 21 -13 2z"/>
<path d="M886 971 c-3 -5 1 -11 9 -15 9 -3 15 0 15 9 0 16 -16 20 -24 6z"/>
<path d="M161 876 c-13 -5 -20 -15 -16 -24 3 -7 5 -20 5 -28 0 -10 10 -13 34
-11 22 1 31 6 26 11 -6 6 -4 16 4 25 13 14 12 17 -8 27 -15 7 -30 7 -45 0z"/>
<path d="M708 766 c-49 -11 -88 -25 -88 -30 0 -5 15 -5 33 -1 17 4 42 9 53 12
18 4 24 -3 38 -43 33 -98 7 -176 -38 -112 -22 32 -20 52 4 45 11 -3 20 -1 20
4 0 5 -13 9 -30 9 -36 0 -38 -15 -7 -61 16 -23 31 -34 47 -34 24 0 25 2 24 75
0 41 -2 89 -5 105 -4 27 -1 30 24 33 15 2 27 8 27 13 0 11 6 12 -102 -15z"/>
<path d="M1646 766 c-44 -12 -81 -27 -83 -33 -3 -8 10 -7 41 2 25 8 47 11 50
7 2 -4 0 -36 -5 -72 -6 -36 -7 -75 -4 -87 11 -47 20 -20 22 68 1 56 6 96 14
103 8 8 13 8 16 -1 3 -9 14 -11 30 -6 l26 6 -6 -80 c-7 -87 -1 -123 18 -123
16 0 98 88 119 128 22 42 20 59 -9 87 -21 22 -33 25 -87 24 -35 -1 -99 -11
-142 -23z m212 -2 c34 -24 28 -64 -18 -123 -22 -27 -49 -55 -60 -61 -19 -10
-20 -8 -20 89 0 95 1 100 23 104 42 8 53 7 75 -9z"/>
<path d="M915 675 c-5 -66 -4 -100 4 -108 15 -15 27 -1 13 16 -8 9 -8 35 0 91
7 51 7 81 0 88 -6 6 -12 -24 -17 -87z"/>
<path d="M1452 700 c-21 -123 -14 -150 38 -150 24 0 136 67 127 76 -2 2 -30
-11 -62 -31 -67 -40 -68 -40 -89 -19 -19 19 -19 21 -1 104 17 76 18 90 7 90
-4 0 -13 -32 -20 -70z"/>
<path d="M1112 686 c-6 -33 -12 -65 -12 -72 0 -22 31 -24 59 -5 26 19 29 19
45 3 16 -16 18 -16 37 7 20 24 28 121 10 121 -5 0 -7 -17 -4 -39 5 -38 -9 -81
-27 -81 -5 0 -13 19 -18 43 l-8 42 -8 -33 c-8 -33 -47 -69 -65 -58 -6 4 -6 19
0 42 6 19 9 47 7 62 -2 20 -7 11 -16 -32z"/>
<path d="M1023 717 c-24 -4 -43 -12 -43 -17 0 -5 12 -7 28 -4 24 5 29 2 40
-28 6 -19 12 -40 12 -46 0 -17 -42 -15 -66 3 -16 13 -17 16 -4 25 12 8 11 10
-7 10 -47 0 -16 -47 43 -64 11 -3 28 0 39 7 18 14 18 21 -10 90 -6 14 -2 17
19 17 14 0 26 4 26 8 0 10 -24 10 -77 -1z"/>
<path d="M1301 710 c-10 -20 -10 -89 -1 -95 16 -10 16 -7 9 50 -3 28 -7 48 -8
45z"/>
<path d="M290 680 c0 -5 5 -10 10 -10 6 0 10 5 10 10 0 6 -4 10 -10 10 -5 0
-10 -4 -10 -10z"/>
<path d="M144 619 c-3 -6 1 -18 9 -27 13 -12 19 -13 31 -3 8 7 12 19 9 27 -6
17 -39 19 -49 3z"/>
<path d="M426 585 c8 -37 14 -45 14 -19 0 10 -5 26 -10 34 -8 11 -9 7 -4 -15z"/>
</g>
</svg>
