<?xml version="1.0" standalone="no"?>
<!DOCTYPE svg PUBLIC "-//W3C//DTD SVG 20010904//EN"
 "http://www.w3.org/TR/2001/REC-SVG-20010904/DTD/svg10.dtd">
<svg version="1.0" xmlns="http://www.w3.org/2000/svg"
 width="200.000000pt" height="200.000000pt" viewBox="0 0 200.000000 200.000000"
 preserveAspectRatio="xMidYMid meet">

<g transform="translate(0.000000,200.000000) scale(0.100000,-0.100000)"
fill="#000000" stroke="none">
<path d="M674 1453 c-9 -15 -14 -16 -26 -6 -28 24 -80 -56 -56 -85 10 -12 10
-16 1 -19 -16 -6 -17 -75 -2 -90 8 -8 8 -13 0 -17 -7 -5 -11 -44 -11 -99 0
-119 27 -166 98 -167 l32 0 0 151 c0 133 -2 154 -17 165 -17 13 -17 15 0 28
22 17 24 76 2 76 -8 0 -15 7 -15 15 0 9 7 18 15 21 18 7 20 44 2 44 -6 0 -17
-8 -23 -17z m-26 -45 c-3 -7 -11 -13 -18 -13 -7 0 -15 6 -17 13 -3 7 4 12 17
12 13 0 20 -5 18 -12z m30 -55 c2 -8 -5 -13 -17 -13 -12 0 -21 6 -21 16 0 18
31 15 38 -3z m-42 -44 c10 -17 -13 -36 -27 -22 -12 12 -4 33 11 33 5 0 12 -5
16 -11z m42 -61 c-7 -19 -38 -22 -38 -4 0 10 9 16 21 16 12 0 19 -5 17 -12z"/>
<path d="M779 1427 c11 -14 11 -21 3 -29 -18 -18 -14 -69 6 -84 16 -13 16 -15
0 -28 -16 -11 -18 -32 -18 -150 0 -142 8 -166 36 -101 17 43 19 176 2 193 -10
10 -10 17 0 32 15 24 16 66 2 75 -6 4 -8 21 -5 39 5 25 2 36 -17 51 -18 16
-20 17 -9 2z"/>
<path d="M226 1204 c-3 -9 -6 -32 -6 -52 0 -48 -9 -60 -49 -68 l-34 -7 7 61
c5 41 3 62 -4 62 -5 0 -10 -21 -10 -48 0 -27 -7 -57 -16 -70 -8 -12 -10 -22
-5 -22 6 0 11 -16 11 -35 0 -26 4 -35 17 -35 13 0 14 3 5 12 -19 19 -14 56 8
62 11 3 29 9 40 12 18 5 20 1 20 -35 0 -49 8 -71 25 -71 11 0 11 5 -1 28 -18
35 -18 66 1 82 13 11 19 9 38 -8 28 -26 72 -43 93 -35 16 6 16 10 2 87 -2 14
5 22 22 27 l25 7 -25 1 c-42 1 -100 -11 -100 -21 0 -6 11 -7 25 -4 22 6 28 2
40 -28 8 -20 15 -40 15 -46 0 -15 -43 -12 -66 5 -16 13 -17 16 -4 25 11 7 4
10 -28 10 l-44 0 7 60 c7 59 3 76 -9 44z"/>
<path d="M497 1213 c-10 -10 -8 -133 2 -171 l10 -32 -45 0 c-57 0 -87 -16
-145 -77 -52 -55 -113 -142 -106 -150 3 -2 10 5 17 16 6 12 14 20 18 17 4 -2
27 26 51 63 48 74 75 90 167 98 43 4 55 1 80 -20 16 -13 39 -29 50 -35 22 -12
54 -68 54 -96 0 -11 -14 -16 -57 -18 -47 -2 -58 -6 -61 -22 -5 -26 15 -36 76
-36 l53 0 -48 -72 c-26 -40 -49 -77 -50 -83 -1 -5 -5 -19 -8 -30 -4 -11 12 9
36 44 24 35 44 69 45 76 1 7 10 24 19 39 16 25 21 26 104 26 98 0 136 15 112
44 -10 12 -31 16 -78 16 l-64 0 3 42 c3 37 7 43 36 52 50 17 102 64 124 112
14 34 18 62 16 121 -3 72 -5 78 -25 81 -22 3 -23 0 -23 -70 -1 -132 -52 -198
-155 -198 -109 0 -165 67 -165 197 0 64 -2 73 -18 73 -10 0 -22 -3 -25 -7z
m123 -267 c0 -3 -4 -8 -10 -11 -5 -3 -10 -1 -10 4 0 6 5 11 10 11 6 0 10 -2
10 -4z"/>
<path d="M1678 1151 c-49 -14 -88 -29 -88 -34 0 -9 7 -8 69 9 l23 7 -7 -85
c-4 -47 -3 -88 1 -91 5 -3 10 23 11 56 3 108 9 124 43 123 l30 -1 0 -97 c0
-75 3 -98 13 -98 21 0 85 69 108 117 52 107 -27 143 -203 94z m198 -16 c15
-23 15 -27 -5 -67 -22 -46 -74 -108 -90 -108 -13 0 -10 183 4 192 5 4 25 8 42
8 24 0 37 -7 49 -25z"/>
<path d="M1030 1149 c-79 -23 -80 -23 -81 -1 -1 9 -7 -25 -14 -77 -14 -100
-12 -121 11 -121 11 0 12 4 3 18 -8 12 -9 41 -5 83 l7 65 45 10 c54 13 60 7
76 -68 11 -55 5 -108 -12 -108 -14 0 -50 61 -43 72 3 5 12 7 20 4 8 -3 11 -1
8 4 -3 6 -15 10 -27 10 -17 0 -19 -4 -13 -27 11 -47 34 -75 58 -71 20 3 22 8
21 73 0 39 -4 84 -8 101 -7 29 -5 33 20 42 49 18 3 12 -66 -9z"/>
<path d="M1306 1088 c-7 -79 -24 -123 -46 -123 -10 0 -17 15 -20 47 -7 60 -16
68 -24 24 -7 -36 -49 -96 -68 -96 -7 0 -8 18 -4 50 3 28 8 74 11 103 l4 52 -9
-45 c-18 -86 -23 -167 -11 -174 15 -9 38 9 62 48 19 32 19 32 35 -21 7 -25 42
-13 57 20 15 31 35 187 25 187 -3 0 -8 -32 -12 -72z"/>
<path d="M1356 1083 c-10 -118 -8 -133 11 -133 13 0 14 3 5 12 -8 8 -9 40 -5
105 7 112 -1 125 -11 16z"/>
<path d="M1500 1082 c-6 -38 -10 -85 -8 -103 2 -29 7 -34 31 -37 29 -4 81 24
113 59 12 14 -1 9 -35 -14 -59 -41 -73 -44 -91 -21 -11 12 -11 30 0 95 7 44
10 82 7 85 -3 3 -10 -26 -17 -64z"/>
<path d="M248 909 c-24 -13 -60 -76 -56 -96 3 -13 15 -2 42 40 40 59 43 73 14
56z"/>
<path d="M612 608 c-39 -59 -41 -77 -7 -64 8 3 26 23 40 44 19 29 23 44 17 61
-7 21 -11 18 -50 -41z"/>
</g>
</svg>
