<?xml version="1.0" standalone="no"?>
<!DOCTYPE svg PUBLIC "-//W3C//DTD SVG 20010904//EN"
 "http://www.w3.org/TR/2001/REC-SVG-20010904/DTD/svg10.dtd">
<svg version="1.0" xmlns="http://www.w3.org/2000/svg"
 width="200.000000pt" height="200.000000pt" viewBox="0 0 200.000000 200.000000"
 preserveAspectRatio="xMidYMid meet">

<g transform="translate(0.000000,200.000000) scale(0.100000,-0.100000)"
fill="#000000" stroke="none">
<path d="M214 1342 c-21 -14 -23 -40 -4 -45 13 -3 21 1 26 15 7 23 -6 41 -22
30z"/>
<path d="M392 1287 c-5 -6 -7 -19 -3 -27 9 -22 38 -21 44 1 6 24 -26 45 -41
26z"/>
<path d="M421 1117 c-1 -15 -7 -43 -15 -62 -13 -29 -13 -35 0 -46 18 -14 18
-49 1 -49 -7 0 -18 5 -24 11 -9 9 -16 8 -28 -5 -14 -14 -14 -16 -1 -16 8 0 20
-9 26 -19 13 -25 13 -98 0 -106 -6 -4 -39 23 -75 58 l-65 65 -10 -37 c-5 -20
-10 -41 -10 -47 0 -6 -11 -32 -25 -58 l-24 -46 24 0 c17 0 29 -9 40 -31 20
-38 13 -47 -21 -25 -24 17 -27 17 -45 0 -20 -18 -20 -18 0 -26 11 -4 23 -19
27 -33 5 -22 11 -25 50 -25 l44 0 0 55 0 55 33 0 34 0 -5 -55 -4 -55 131 0
131 0 0 51 c0 60 12 87 47 100 24 9 25 11 9 28 -12 14 -35 102 -36 139 0 2
-26 -17 -58 -42 -32 -25 -62 -46 -66 -46 -13 0 0 101 13 109 9 6 8 11 -3 21
-13 10 -17 9 -22 -4 -10 -26 -24 -18 -24 14 0 17 5 30 12 30 7 0 5 7 -5 18 -9
9 -25 37 -36 62 -18 41 -20 42 -20 17z m33 -73 c9 -23 8 -24 -14 -24 -19 0
-27 20 -13 33 11 11 20 8 27 -9z m-14 -126 c0 -25 -12 -58 -21 -58 -5 0 -9 16
-9 35 0 24 5 35 15 35 8 0 15 -6 15 -12z m40 -24 c0 -24 -4 -34 -12 -32 -24 8
-22 68 2 68 5 0 10 -16 10 -36z m118 -72 c3 -27 0 -32 -17 -32 -14 0 -21 6
-21 19 0 56 33 67 38 13z m-298 -1 c17 -33 12 -51 -14 -51 -26 0 -40 23 -31
51 8 25 32 24 45 0z m160 -106 c0 -43 -1 -45 -30 -45 -28 0 -30 2 -30 38 0 45
5 52 37 52 21 0 23 -5 23 -45z m98 -7 c-3 -38 -6 -43 -29 -46 -28 -3 -39 15
-39 66 0 19 5 22 36 22 l35 0 -3 -42z"/>
<path d="M775 833 c-14 -13 -16 -32 -13 -99 3 -90 16 -116 46 -98 9 6 18 25
20 43 3 27 7 31 33 31 25 0 29 -4 29 -27 0 -37 13 -56 36 -51 17 3 19 15 22
104 2 87 0 103 -14 108 -25 10 -44 -12 -44 -50 0 -31 -3 -34 -30 -34 -27 0
-30 3 -30 33 0 31 -14 57 -31 57 -4 0 -15 -8 -24 -17z"/>
<path d="M1082 838 c-7 -7 -12 -43 -12 -91 0 -58 -3 -78 -12 -75 -7 3 -14 17
-16 32 -3 23 -8 27 -30 24 -64 -7 -17 -98 51 -98 59 0 71 18 75 107 3 64 1 83
-13 96 -20 20 -27 21 -43 5z"/>
<path d="M1273 843 c-20 -8 -18 -202 2 -209 33 -13 45 15 45 105 0 98 -10 120
-47 104z"/>
<path d="M1453 843 c-9 -3 -13 -26 -13 -66 0 -74 -8 -109 -24 -104 -6 2 -12
16 -14 31 -3 23 -8 27 -30 24 -66 -7 -17 -98 53 -98 58 0 75 26 75 118 0 88
-11 110 -47 95z"/>
<path d="M1550 834 c-32 -38 -6 -182 35 -198 25 -9 63 -7 70 4 4 7 12 7 25 0
30 -16 59 -12 84 13 57 57 37 234 -20 186 -9 -8 -14 -34 -14 -80 0 -60 -11
-91 -27 -75 -3 3 -6 35 -7 72 -1 51 -5 69 -18 78 -29 18 -43 -8 -43 -82 0 -53
-3 -67 -15 -67 -12 0 -16 16 -18 70 -4 87 -23 115 -52 79z"/>
<path d="M1853 843 c-20 -8 -18 -202 2 -209 33 -13 45 15 45 105 0 98 -10 120
-47 104z"/>
</g>
</svg>
