<?xml version="1.0" standalone="no"?>
<!DOCTYPE svg PUBLIC "-//W3C//DTD SVG 20010904//EN"
 "http://www.w3.org/TR/2001/REC-SVG-20010904/DTD/svg10.dtd">
<svg version="1.0" xmlns="http://www.w3.org/2000/svg"
 width="200.000000pt" height="200.000000pt" viewBox="0 0 200.000000 200.000000"
 preserveAspectRatio="xMidYMid meet">

<g transform="translate(0.000000,200.000000) scale(0.100000,-0.100000)"
fill="#000000" stroke="none">
<path d="M361 1889 c-33 -13 -81 -49 -81 -60 0 -5 15 -9 34 -9 61 0 97 -19
117 -64 21 -47 30 -40 -89 -75 -88 -27 -125 -62 -176 -165 -42 -84 -44 -94
-15 -65 34 34 147 82 196 83 39 1 49 -3 79 -36 40 -44 40 -46 14 -163 -38
-176 -51 -323 -57 -653 l-6 -323 -41 -18 -41 -19 80 -1 c153 -2 208 -16 365
-91 80 -38 179 -78 220 -89 189 -48 427 -53 565 -11 80 25 206 89 283 144 61
44 62 57 3 27 -22 -12 -45 -21 -51 -21 -6 0 -10 34 -10 89 0 116 -13 181 -54
268 -34 71 -34 71 -14 90 14 13 35 18 71 17 l50 -1 -29 24 c-24 20 -37 23 -76
19 -43 -5 -48 -3 -48 15 0 11 11 24 25 31 29 13 33 28 8 28 -32 0 -67 -25 -73
-50 -5 -23 -10 -25 -51 -22 -28 2 -51 -2 -64 -12 -20 -15 -19 -15 6 -16 39 0
40 -9 3 -43 -18 -18 -36 -45 -40 -62 l-6 -30 24 27 c12 15 36 32 52 38 28 10
28 10 23 -20 -4 -16 -4 -37 0 -46 5 -13 10 -9 22 17 22 46 62 52 80 13 29 -64
51 -191 51 -294 l0 -105 -64 -27 c-158 -68 -485 -55 -758 28 -89 27 -105 44
-42 44 24 0 34 5 34 15 0 8 9 15 19 15 14 0 27 19 51 78 35 84 78 172 84 172
2 0 11 -40 20 -90 20 -106 11 -157 -32 -189 l-27 -20 44 -1 c30 0 48 5 57 17
12 15 15 16 23 4 7 -11 11 -5 16 23 5 24 3 42 -4 49 -6 6 -11 47 -11 98 0 50
-6 104 -15 128 -15 45 -10 101 10 101 16 0 55 -43 55 -61 0 -9 3 -19 8 -23 4
-4 7 -74 7 -154 l0 -147 53 -8 c60 -10 76 -4 45 18 -19 13 -20 22 -17 117 2
57 9 137 15 178 7 45 8 111 4 164 l-7 89 51 -7 51 -7 0 139 0 138 -27 -1 c-26
0 -28 3 -31 45 -3 35 -11 53 -43 87 -38 42 -39 44 -23 68 9 14 19 25 23 25 12
0 42 71 35 83 -50 89 -157 69 -168 -31 -7 -58 -11 -62 -60 -62 -31 0 -48 -6
-62 -21 -10 -12 -44 -34 -75 -49 -30 -16 -60 -35 -67 -42 -13 -16 -17 -63 -7
-94 5 -17 -1 -27 -29 -49 -45 -34 -242 -136 -281 -145 l-30 -6 33 -18 c22 -11
43 -15 63 -11 25 6 28 4 22 -11 -6 -16 -4 -16 20 2 15 10 30 29 33 41 5 17 20
25 75 38 38 10 81 26 95 37 24 19 26 19 44 3 11 -10 20 -30 20 -44 0 -14 11
-56 24 -93 24 -67 24 -68 7 -145 -32 -143 -147 -367 -211 -413 -27 -20 -28
-20 -96 4 -38 13 -90 26 -115 30 l-46 7 -6 112 c-13 221 0 859 18 945 8 32 26
27 88 -23 59 -48 89 -89 118 -163 l18 -47 1 98 c0 107 -5 124 -67 210 -26 37
-30 47 -16 43 10 -3 32 -8 48 -12 67 -16 121 -48 186 -110 75 -73 75 -73 29
49 -31 82 -76 135 -142 171 -33 18 -58 38 -58 47 0 27 37 66 85 89 25 12 45
25 45 29 0 13 -58 41 -87 41 -31 0 -76 -25 -139 -76 -23 -19 -43 -34 -46 -34
-3 0 -8 12 -11 28 -6 30 -55 85 -102 114 -33 20 -67 22 -104 7z m662 -724 c4
-22 5 -55 2 -74 l-6 -33 -28 26 c-15 14 -33 42 -40 63 -12 33 -12 38 5 50 33
24 57 12 67 -32z m347 -215 c0 -40 0 -40 -39 -40 -48 0 -53 6 -36 48 12 26 20
32 45 32 28 0 30 -2 30 -40z"/>
<path d="M1363 1184 c-3 -8 -1 -20 6 -27 8 -8 11 -4 11 16 0 30 -7 35 -17 11z"/>
</g>
</svg>
